<svg xmlns="http://www.w3.org/2000/svg" xmlns:xlink="http://www.w3.org/1999/xlink" fill="none" version="1.1" width="20" height="20" viewBox="0 0 20 20"><defs><clipPath id="master_svg0_211_45230"><rect x="0" y="0" width="20" height="20" rx="0"/></clipPath></defs><g clip-path="url(#master_svg0_211_45230)"><g><path d="M14.821328125,4.0348732031250005C14.209728125,4.022733203125,13.707328125,4.515313203125,13.707328125,5.127163203125C13.707428125,5.739133203125,14.210028125,6.231703203125,14.821728125,6.219443203125C15.416528125,6.207643203125,15.892528125,5.722083203125,15.892528125,5.127153203125C15.892528125,4.532233203125,15.416528125,4.046673203125,14.821728125,4.0348732031250005M9.963398125,13.019433203125C8.287788124999999,13.019433203125,6.929438125,11.661133203125,6.929438125,9.985493203125C6.929438125,8.309883203125,8.287788124999999,6.951533203125,9.963398125,6.951533203125C11.639028125,6.951533203125,12.997328125,8.309883203125,12.997328125,9.985503203125C12.997328125,11.661133203125,11.639028125,13.019433203125,9.963398125,13.019433203125ZM9.963398125,5.311123203125C7.381738125,5.311123203125,5.289238125,7.404033203125,5.289238125,9.985283203125C5.289238125,12.566933203125,7.381738125,14.659433203125,9.962988125,14.659433203125C12.544628125,14.659433203125,14.636728125,12.566933203125,14.636728125,9.985283203125C14.636728125,7.404033203125,12.544628125,5.311533203125,9.962988125,5.311533203125M9.962988125,0.884033203125C7.491308125,0.884033203125,7.181328125,0.894462903125,6.210488125,0.939033203125C5.241738125,0.982783303125,4.580078125,1.136963203125,4.0013081249999995,1.361963203125C3.402578125,1.5944632031250001,2.895058125,1.905713203125,2.3888081249999997,2.411533203125C1.882988125,2.917373203125,1.572148125,3.425283203125,1.338809125,4.024033203125001C1.114238125,4.602783203125,0.960488225,5.264463203125,0.916328125,6.232783203125C0.872148425,7.203623203125,0.861328125,7.513623203125,0.861328125,9.985283203125C0.861328125,12.457333203125,0.872148425,12.767333203125,0.916328125,13.738233203125C0.960488325,14.706533203125,1.114238125,15.368633203125,1.339238125,15.947333203125C1.572148125,16.545733203125,1.882988125,17.053633203125,2.3892381250000003,17.559833203125C2.895078125,18.065733203125,3.402578125,18.376533203125,4.001328125000001,18.609433203125C4.5804881250000005,18.834433203125,5.241738125,18.988233203125,6.210488125,19.031933203125C7.181328125,19.076533203125,7.491328125,19.086933203125,9.962988125,19.086933203125C12.435028125,19.086933203125,12.744628125,19.076533203125,13.715528125,19.031933203125C14.684228125,18.988233203125,15.345928125,18.834033203125,15.924628125,18.609433203125C16.523428125000002,18.376533203125,17.030928125,18.065733203125,17.537128125,17.559433203125C18.043028125,17.053633203125,18.354228125,16.545733203125,18.587128125,15.947333203125C18.812128125,15.368233203125,18.965528125,14.706533203125,19.010128125,13.738233203125C19.053828125,12.767333203125,19.064228125,12.457333203125,19.064228125,9.985283203125C19.064228125,7.513623203125,19.053828125,7.204033203125,19.010128125,6.232783203125C18.965528125,5.264463203125,18.812128125,4.602783203125,18.586728125,4.023623203125C18.354228125,3.425283203125,18.043028125,2.917373203125,17.536728125,2.411533203125C17.030928125,1.905713203125,16.523428125000002,1.594872203125,15.924628125,1.361532203125C15.345528125,1.136962203125,14.684228125,0.982782603125,13.715528125,0.939032603125C12.744628125,0.894462203125,12.435128125,0.884032607079,9.962988125,0.884033203125ZM9.962988125,2.5240332031249997C12.393028125,2.5240332031249997,12.681328125,2.5332132031250003,13.640928125,2.576963203125C14.528428125,2.6177832031249997,15.010528125,2.7657132031250002,15.330928125,2.890283203125C15.755928125,3.055283203125,16.058828124999998,3.252783203125,16.377128125,3.571123203125C16.695928125000002,3.889463203125,16.893028125,4.193193203125,17.058028125,4.617803203125C17.183028125,4.938623203125,17.330928125,5.420283203125,17.371728125,6.307783203125C17.415528125,7.267373203125,17.424628125,7.555283203125,17.424628125,9.985283203125C17.424628125,12.415733203125,17.415528125,12.704033203125,17.371728125,13.663633203125C17.330928125,14.551133203125,17.183028125,15.032333203125,17.058028125,15.353233203125C16.893028125,15.778233203125,16.695928125000002,16.081133203125,16.377128125,16.400233203124998C16.058828124999998,16.718633203125002,15.755928125,16.915733203125,15.330928125,17.080733203125C15.010128125,17.205733203125,14.528028125,17.353633203125,13.640928125,17.394433203125C12.681328125,17.437733203125,12.393428125,17.446933203125,9.962988125,17.446933203125C7.532578125,17.446933203125,7.244648125,17.437733203125,6.285058125,17.394433203125C5.397558125,17.353633203125,4.915918125,17.205333203125,4.595078125000001,17.080733203125C4.170078125,16.915733203125,3.867148125,16.718233203125,3.548828125,16.400233203124998C3.230078125,16.081133203125,3.032988125,15.777733203125,2.867988125,15.353233203125C2.742988125,15.032333203125,2.5950781249999997,14.550733203125,2.554238125,13.663633203125C2.510488125,12.704033203125,2.501308125,12.415733203125,2.501308125,9.985303203125C2.501308125,7.555283203125,2.510488125,7.267373203125,2.554238125,6.307783203125C2.595058125,5.420283203125,2.742988125,4.938623203125,2.867988125,4.617783203125001C3.032988125,4.192783203125,3.230488125,3.889463203125,3.548828125,3.571123203125C3.867148125,3.252783203125,4.170078125,3.055303203125,4.595078125000001,2.890283203125C4.915898125,2.7657132031250002,5.397988125,2.6177832031249997,6.285078125,2.576963203125C7.245078125,2.5332132031250003,7.532988125,2.5240332031249997,9.962988125,2.5240332031249997Z" fill="#FFFFFF" fill-opacity="1"/></g></g></svg>