<svg xmlns="http://www.w3.org/2000/svg" xmlns:xlink="http://www.w3.org/1999/xlink" fill="none" version="1.1" width="28.000001907348633" height="28.000001907348633" viewBox="0 0 28.000001907348633 28.000001907348633"><defs><clipPath id="master_svg0_1_01189"><rect x="0" y="0" width="28.000001907348633" height="28.000001907348633" rx="0"/></clipPath></defs><g clip-path="url(#master_svg0_1_01189)"><g><path d="M5.214615969116211,6.452051969116211Q5.091544969116211,6.328981969116211,5.024938969116211,6.168181969116211Q4.958333969116211,6.007381969116211,4.958333969116211,5.833333969116211Q4.958333969116211,5.747153969116211,4.975146969116211,5.662629969116211Q4.991959969116211,5.578105969116211,5.024939969116211,5.498485969116211Q5.057918969116211,5.418865969116211,5.105797969116211,5.347209969116211Q5.153676969116211,5.275553969116211,5.214615969116211,5.214615969116211Q5.275553969116211,5.153676969116211,5.347209969116211,5.105797969116211Q5.418865969116211,5.057918969116211,5.498485969116211,5.024939969116211Q5.578105969116211,4.991959969116211,5.662629969116211,4.975146969116211Q5.747153969116211,4.958333969116211,5.833333969116211,4.958333969116211Q6.007381969116211,4.958333969116211,6.168181969116211,5.024938969116211Q6.328981969116211,5.091544969116211,6.452051969116211,5.214615969116211L22.785433969116212,21.54793396911621Q22.90843396911621,21.67103396911621,22.97503396911621,21.83183396911621Q23.041633969116212,21.992633969116213,23.041633969116212,22.166633969116212Q23.041633969116212,22.25283396911621,23.024833969116212,22.337333969116212Q23.008033969116212,22.42193396911621,22.97503396911621,22.50153396911621Q22.94203396911621,22.581133969116213,22.89423396911621,22.652833969116212Q22.846333969116213,22.724433969116212,22.785433969116212,22.785433969116212Q22.724433969116212,22.846333969116213,22.652833969116212,22.89423396911621Q22.581133969116213,22.94203396911621,22.50153396911621,22.97503396911621Q22.42193396911621,23.008033969116212,22.337333969116212,23.024833969116212Q22.25283396911621,23.041633969116212,22.166633969116212,23.041633969116212Q21.992633969116213,23.041633969116212,21.83183396911621,22.97503396911621Q21.67103396911621,22.90843396911621,21.54793396911621,22.785433969116212L5.214615969116211,6.452051969116211Z" fill-rule="evenodd" fill="#FFFFFF"/></g><g transform="matrix(-1,0,0,1,44.333335876464844,0)"><path d="M21.54794993823242,6.452051969116211Q21.42487893823242,6.328981969116211,21.35827293823242,6.168181969116211Q21.291667938232422,6.007381969116211,21.291667938232422,5.833333969116211Q21.291667938232422,5.747153969116211,21.30848093823242,5.662629969116211Q21.325293938232424,5.578105969116211,21.358273938232422,5.498485969116211Q21.391252938232423,5.418865969116211,21.43913193823242,5.347209969116211Q21.487010938232423,5.275553969116211,21.54794993823242,5.214615969116211Q21.60888793823242,5.153676969116211,21.68054393823242,5.105797969116211Q21.752199938232422,5.057918969116211,21.83181993823242,5.024939969116211Q21.911439938232423,4.991959969116211,21.99596393823242,4.975146969116211Q22.080487938232423,4.958333969116211,22.166667938232422,4.958333969116211Q22.34071593823242,4.958333969116211,22.501515938232423,5.024938969116211Q22.66231593823242,5.091544969116211,22.785385938232423,5.214615969116211L39.11876793823242,21.54793396911621Q39.24176793823242,21.67103396911621,39.30836793823242,21.83183396911621Q39.37496793823242,21.992633969116213,39.37496793823242,22.166633969116212Q39.37496793823242,22.25283396911621,39.35816793823243,22.337333969116212Q39.34136793823242,22.42193396911621,39.30836793823242,22.50153396911621Q39.27536793823242,22.581133969116213,39.227567938232426,22.652833969116212Q39.17966793823243,22.724433969116212,39.11876793823242,22.785433969116212Q39.05776793823242,22.846333969116213,38.98616793823243,22.89423396911621Q38.91446793823242,22.94203396911621,38.83486793823242,22.97503396911621Q38.75526793823242,23.008033969116212,38.67066793823243,23.024833969116212Q38.58616793823242,23.041633969116212,38.49996793823242,23.041633969116212Q38.325967938232424,23.041633969116212,38.16516793823242,22.97503396911621Q38.00436793823242,22.90843396911621,37.881267938232426,22.785433969116212L21.54794993823242,6.452051969116211Z" fill-rule="evenodd" fill="#FFFFFF"/></g></g></svg>