<svg xmlns="http://www.w3.org/2000/svg" xmlns:xlink="http://www.w3.org/1999/xlink" fill="none" version="1.1" width="20" height="20" viewBox="0 0 20 20"><defs><clipPath id="master_svg0_211_45228"><rect x="0" y="0" width="20" height="20" rx="0"/></clipPath></defs><g clip-path="url(#master_svg0_211_45228)"><g><path d="M20,10C20,4.47727,15.5227,0,10,0C4.47727,0,0,4.47727,0,10C0,15.5227,4.47727,20,10,20C15.5227,20,20,15.5227,20,10ZM7.31455,10L7.31455,8.08636L8.48727,8.08636L8.48727,6.92909C8.48727,5.36818,8.95364,4.24364,10.6627,4.24364L12.6955,4.24364L12.6955,6.15273L11.2645,6.15273C10.5473,6.15273,10.3845,6.62909,10.3845,7.12818L10.3845,8.08636L12.59,8.08636L12.2891,10L10.3845,10L10.3845,15.7718L8.48727,15.7718L8.48727,10L7.31455,10Z" fill="#FFFFFF" fill-opacity="1"/></g></g></svg>