<svg xmlns="http://www.w3.org/2000/svg" xmlns:xlink="http://www.w3.org/1999/xlink" fill="none" version="1.1" width="24" height="24" viewBox="0 0 24 24"><g><g><path d="M8.79122,14.4214L6.335918,14.4214Q5.613014,14.4214,5.29098,13.7742Q4.9689499999999995,13.127,5.404936,12.5504L13.45515,1.9033214Q13.99773,1.185708,14.82983,1.527721Q15.66193,1.869733,15.54303,2.761488L14.66361,9.357140000000001L17.359,9.357140000000001Q18.0867,9.357140000000001,18.407,10.01059Q18.7273,10.66404,18.2815,11.23925L10.21331,21.6499Q9.67391,22.3459,8.85657,22.0183Q8.03923,21.6907,8.12983,20.8148L8.79122,14.4214ZM10.41938,18.119L10.89469,13.5243L11.008790000000001,12.4214L8.00977,12.4214L13.14246,5.63303L12.379249999999999,11.35714L15.65984,11.35714L10.41938,18.119Z" fill-rule="evenodd" fill="#FFFFFF" fill-opacity="1"/></g></g></svg>