<svg xmlns="http://www.w3.org/2000/svg" xmlns:xlink="http://www.w3.org/1999/xlink" fill="none" version="1.1" width="168" height="20" viewBox="0 0 168 20"><g><path d="M60.3895,0L50.3815,7.46773L40.3736,0L33.5907,0L46.9901,9.99555L33.5907,20L40.3736,20L50.3815,12.5323L60.3895,20L67.1815,20L53.7822,9.99555L67.1815,0L60.3895,0ZM0,4.27236L0,15.7276C0,18.0872,1.9859,20,4.43561,20L30.5598,20L30.5598,16.3596L7.29105,16.3596C6.07492,16.3596,5.08763,15.4126,5.08247,14.2412L5.08247,11.66L28.6931,11.66L28.6931,8.01068L5.08247,8.01068L5.08247,5.76769C5.08247,4.59282,6.07131,3.64041,7.29105,3.64041L30.5598,3.64041L30.5598,0L4.43561,0C1.9859,0,0,1.9128,0,4.27236ZM70.231,4.27236L70.231,15.7276C70.231,18.0872,72.2169,20,74.6666,20L100.8,20L100.8,16.3596L77.5036,16.3596C76.9147,16.362,76.3491,16.1377,75.9326,15.7365C75.5162,15.3354,75.2833,14.7907,75.2858,14.2234L75.2858,11.66L98.8779,11.66L98.8779,8.01068L75.2858,8.01068L75.2858,5.76769C75.2857,5.20195,75.5197,4.65952,75.9359,4.26032C76.3521,3.86112,76.9163,3.63804,77.5036,3.64041L100.772,3.64041L100.772,0L74.639,0C72.2,0.0146844,70.231,1.92319,70.231,4.27236ZM163.564,0L137.431,0L137.431,20L163.564,20C164.741,20,165.869,19.5499,166.701,18.7486C167.533,17.9474,168,16.8607,168,15.7276L168,4.27236C168,1.9128,166.014,0,163.564,0ZM162.917,14.2412C162.92,14.8085,162.687,15.3532,162.271,15.7543C161.854,16.1555,161.289,16.3798,160.7,16.3774L142.504,16.3774L142.504,3.64039L160.69,3.64039C161.279,3.63803,161.845,3.86233,162.261,4.26346C162.678,4.66459,162.911,5.20931,162.908,5.77659L162.917,14.2412ZM103.84,4.27236L103.84,15.7276C103.84,18.0837,105.821,19.9951,108.267,20L134.4,20L134.4,16.3596L111.131,16.3596C110.544,16.3596,109.981,16.1342,109.566,15.7334C109.152,15.3325,108.92,14.7891,108.923,14.2234L108.923,11.66L132.524,11.66L132.524,8.01068L108.923,8.01068L108.923,5.76769C108.923,4.59282,109.912,3.64041,111.131,3.64041L134.4,3.64041L134.4,0L108.267,0C105.821,0.00491116,103.84,1.91627,103.84,4.27236Z" fill="#FFFFFF" fill-opacity="1"/></g></svg>