<svg xmlns="http://www.w3.org/2000/svg" xmlns:xlink="http://www.w3.org/1999/xlink" fill="none" version="1.1" width="122" height="14" viewBox="0 0 122 14"><g><path d="M43.8542,0L36.5866,5.22741L29.3189,0L24.3933,0L34.1238,6.99688L24.3933,14L29.3189,14L36.5866,8.77258L43.8542,14L48.7866,14L39.0561,6.99688L48.7866,0L43.8542,0ZM0,2.99065L0,11.0093C0,12.661,1.44214,14,3.2211,14L22.1922,14L22.1922,11.4517L5.29469,11.4517C4.41155,11.4517,3.69458,10.7888,3.69084,9.96885L3.69084,8.16199L20.8366,8.16199L20.8366,5.60747L3.69084,5.60747L3.69084,4.03738C3.69084,3.21498,4.40892,2.54828,5.29469,2.54828L22.1922,2.54828L22.1922,0L3.2211,0C1.44214,0,0,1.33896,0,2.99065ZM51.0011,2.99065L51.0011,11.0093C51.0011,12.661,52.4433,14,54.2222,14L73.1999,14L73.1999,11.4517L56.2824,11.4517C55.8547,11.4534,55.444,11.2964,55.1415,11.0156C54.8391,10.7348,54.67,10.3535,54.6719,9.95639L54.6719,8.16199L71.8042,8.16199L71.8042,5.60747L54.6719,5.60747L54.6719,4.03738C54.6718,3.64137,54.8417,3.26166,55.144,2.98222C55.4462,2.70278,55.8559,2.54663,56.2824,2.54828L73.1798,2.54828L73.1798,0L54.2021,0C52.431,0.0102791,51.0011,1.34624,51.0011,2.99065ZM118.779,0L99.8011,0L99.8011,14L118.779,14C119.633,14,120.452,13.6849,121.057,13.1241C121.661,12.5632,122,11.8025,122,11.0093L122,2.99065C122,1.33896,120.558,0,118.779,0ZM118.309,9.96885C118.311,10.3659,118.142,10.7472,117.839,11.028C117.537,11.3088,117.126,11.4658,116.699,11.4642L103.485,11.4642L103.485,2.54827L116.692,2.54827C117.12,2.54662,117.53,2.70363,117.833,2.98442C118.135,3.26521,118.304,3.64652,118.302,4.04361L118.309,9.96885ZM75.4078,2.99065L75.4078,11.0093C75.4078,12.6586,76.8459,13.9966,78.6222,14L97.6,14L97.6,11.4517L80.7025,11.4517C80.276,11.4517,79.867,11.294,79.566,11.0134C79.2651,10.7328,79.0968,10.3524,79.0986,9.95639L79.0986,8.16199L96.2377,8.16199L96.2377,5.60747L79.0986,5.60747L79.0986,4.03738C79.0986,3.21498,79.8167,2.54828,80.7025,2.54828L97.6,2.54828L97.6,0L78.6222,0C76.8459,0.00343781,75.4078,1.34139,75.4078,2.99065Z" fill="#808080" fill-opacity="1"/></g></svg>