<svg xmlns="http://www.w3.org/2000/svg" xmlns:xlink="http://www.w3.org/1999/xlink" fill="none" version="1.1" width="77.5" height="79.58837890625" viewBox="0 0 77.5 79.58837890625"><defs><filter id="master_svg0_211_03153/1_4442" filterUnits="objectBoundingBox" color-interpolation-filters="sRGB" x="0" y="0" width="1" height="1"><feFlood flood-opacity="0" result="BackgroundImageFix"/><feBlend mode="normal" in="SourceGraphic" in2="BackgroundImageFix" result="shape"/><feGaussianBlur in="BackgroundImageFix" stdDeviation="15"/><feComposite in2="SourceAlpha" operator="in" result="effect1_foregroundBlur"/><feBlend mode="normal" in="SourceGraphic" in2="effect1_foregroundBlur" result="shape"/></filter><filter id="master_svg1_211_03153/1_4441" filterUnits="objectBoundingBox" color-interpolation-filters="sRGB" x="-1.5384615384615385" y="-1.5384615384615385" width="4.076923076923077" height="4.076923076923077"><feFlood flood-opacity="0" result="BackgroundImageFix"/><feColorMatrix in="SourceAlpha" type="matrix" values="0 0 0 0 0 0 0 0 0 0 0 0 0 0 0 0 0 0 127 0"/><feOffset dy="0" dx="0"/><feGaussianBlur stdDeviation="10"/><feColorMatrix type="matrix" values="0 0 0 0 0 0 0 0 0 0 0 0 0 0 0 0 0 0 0.20000000298023224 0"/><feBlend mode="normal" in2="BackgroundImageFix" result="effect1_dropShadow"/><feBlend mode="normal" in="SourceGraphic" in2="effect1_dropShadow" result="shape"/></filter></defs><g><g filter="url(#master_svg0_211_03153/1_4442)"><ellipse cx="36.5" cy="39.794189453125" rx="36" ry="36" fill="#FFFFFF" fill-opacity="0.30000001192092896"/></g><g transform="matrix(0,1,-1,0,76.294189453125,-22.705810546875)" filter="url(#master_svg1_211_03153/1_4441)"><path d="M72.02629999999999,43.294189453125Q72.059,43.350889453125,72.088,43.409589453125Q72.1169,43.468289453124996,72.142,43.528789453125Q72.167,43.589289453125005,72.18809999999999,43.651289453125Q72.2091,43.713289453125,72.2261,43.776589453125Q72.243,43.839789453125,72.2558,43.903989453125Q72.26859999999999,43.968189453125,72.2771,44.033089453125Q72.28569999999999,44.098089453125,72.2899,44.163389453125Q72.2942,44.228689453125,72.2942,44.294189453125Q72.2942,44.359689453125,72.2899,44.424989453125Q72.28569999999999,44.490289453125,72.2771,44.555289453125Q72.26859999999999,44.620189453125,72.2558,44.684389453125Q72.243,44.748589453125,72.2261,44.811789453125Q72.2091,44.875089453125,72.18809999999999,44.937089453125Q72.167,44.999089453124995,72.142,45.059589453125Q72.1169,45.120089453125004,72.088,45.178789453125Q72.059,45.237489453125,72.02629999999999,45.294189453125Q71.9935,45.350889453125,71.9572,45.405289453125Q71.9208,45.459789453125,71.8809,45.511689453125Q71.8411,45.563689453125,71.7979,45.612889453125Q71.7547,45.662089453125,71.7084,45.708389453125Q71.6621,45.754689453124996,71.6129,45.797889453124995Q71.5637,45.840989453125005,71.5118,45.880889453125Q71.4598,45.920789453124996,71.4054,45.957089453125Q71.3509,45.993489453125,71.2942,46.026289453125Q71.2375,46.058989453125,71.1788,46.087889453125Q71.12010000000001,46.116889453125,71.0596,46.141989453125Q70.9991,46.166989453125,70.9371,46.188089453125Q70.8751,46.209089453125,70.81190000000001,46.226089453125Q70.7486,46.242989453125,70.6844,46.255789453125004Q70.6202,46.268489453125,70.5553,46.277089453125Q70.4904,46.285589453125,70.425,46.289889453125Q70.3597,46.294189453125,70.2942,46.294189453125L54.70577,46.294189453125Q54.640299999999996,46.294189453125,54.57497,46.289889453125Q54.50963,46.285589453125,54.444720000000004,46.277089453125Q54.37981,46.268489453125,54.31559,46.255789453125004Q54.25138,46.242989453125,54.18813,46.226089453125Q54.12489,46.209089453125,54.06289,46.188089453125Q54.0009,46.166989453125,53.94041,46.141989453125Q53.87992,46.116889453125,53.82119,46.087889453125Q53.76247,46.058989453125,53.70577,46.026289453125Q53.64907,45.993489453125,53.59463,45.957089453125Q53.54019,45.920789453124996,53.48825,45.880889453125Q53.43631,45.840989453125005,53.38708,45.797889453124995Q53.33786,45.754689453124996,53.29156,45.708389453125Q53.24526,45.662089453125,53.20209,45.612889453125Q53.15892,45.563689453125,53.11907,45.511689453125Q53.07921,45.459789453125,53.04283,45.405289453125Q53.00646,45.350889453125,52.97372,45.294189453125Q52.94098,45.237489453125,52.91203,45.178789453125Q52.883070000000004,45.120089453125004,52.85801,45.059589453125Q52.83296,44.999089453124995,52.81191,44.937089453125Q52.79087,44.875089453125,52.77392,44.811789453125Q52.75697,44.748589453125,52.7442,44.684389453125Q52.73143,44.620189453125,52.72288,44.555289453125Q52.71434,44.490289453125,52.71005,44.424989453125Q52.70577,44.359689453125,52.70577,44.294189453125Q52.70577,44.228689453125,52.71005,44.163389453125Q52.71434,44.098089453125,52.72288,44.033089453125Q52.73143,43.968189453125,52.7442,43.903989453125Q52.75697,43.839789453125,52.77392,43.776589453125Q52.79087,43.713289453125,52.81191,43.651289453125Q52.83296,43.589289453125005,52.85801,43.528789453125Q52.883070000000004,43.468289453124996,52.91203,43.409589453125Q52.94098,43.350889453125,52.97372,43.294189453125L60.7679,29.794189453125Q60.8007,29.737489453125,60.8371,29.683049453125Q60.873400000000004,29.628609453125,60.9133,29.576669453125Q60.9532,29.524719453125,60.9963,29.475499453125Q61.039500000000004,29.426269453125002,61.0858,29.379979453125Q61.1321,29.333679453125,61.1813,29.290509453125Q61.2305,29.247339453125,61.2825,29.207479453125Q61.3344,29.167629453125,61.3889,29.131249453125Q61.4433,29.094879453125,61.5,29.062139453125Q61.5567,29.029399453125,61.6154,29.000439453125Q61.674099999999996,28.971489453125,61.7346,28.946429453125Q61.7951,28.921379453125,61.8571,28.900329453125Q61.9191,28.879279453125,61.9824,28.862339453125Q62.0456,28.845389453125,62.1098,28.832619453124998Q62.174,28.819849453125,62.2389,28.811299453125Q62.3039,28.802749453125,62.3692,28.798469453125Q62.4345,28.794189453125,62.5,28.794189453125Q62.5655,28.794189453125,62.6308,28.798469453125Q62.6961,28.802749453125,62.7611,28.811299453125Q62.826,28.819849453125,62.8902,28.832619453124998Q62.9544,28.845389453125,63.0176,28.862339453125Q63.0809,28.879279453125,63.1429,28.900329453125Q63.2049,28.921379453125,63.2654,28.946429453125Q63.325900000000004,28.971489453125,63.3846,29.000439453125Q63.4433,29.029399453125,63.5,29.062139453125Q63.5567,29.094879453125,63.6111,29.131249453125Q63.6656,29.167629453125,63.7175,29.207479453125Q63.7695,29.247339453125,63.8187,29.290509453125Q63.8679,29.333679453125,63.9142,29.379979453125Q63.960499999999996,29.426269453125002,64.0037,29.475499453125Q64.0469,29.524719453125,64.08670000000001,29.576669453125Q64.1266,29.628609453125,64.16290000000001,29.683049453125Q64.1993,29.737489453125,64.2321,29.794189453125L72.02629999999999,43.294189453125Z" fill="#FFFFFF" fill-opacity="0.800000011920929"/></g></g></svg>