<svg xmlns="http://www.w3.org/2000/svg" xmlns:xlink="http://www.w3.org/1999/xlink" fill="none" version="1.1" width="20" height="20" viewBox="0 0 20 20"><defs><clipPath id="master_svg0_211_45226"><rect x="0" y="0" width="20" height="20" rx="0"/></clipPath></defs><g clip-path="url(#master_svg0_211_45226)"><g><path d="M18.7502828125,8.19961C17.0305828125,8.20372,15.3529828125,7.6674,13.9545828125,6.66641L13.9545828125,13.6477C13.9532828125,17.2685,10.9290028125,20.1553,7.3119628125,19.9882C3.6949328125,19.8211,0.9496958125,16.6679,1.2821804125,13.0623C1.6146658125,9.45668,4.8902428125,6.85867,8.4768428125,7.35586L8.4768428125,10.8672C6.8296828125,10.3491,5.0957228125,11.3684,4.7473328125,13.0596C4.3989428125,14.7508,5.5888628125,16.3725,7.3066828125,16.5475C9.024462812500001,16.7227,10.5170728125,15.3744,10.5170728125,13.6477L10.5170728125,0L13.9545828125,0C13.9521828125,0.290289,13.9764828125,0.580182,14.0271828125,0.866016C14.2686828125,2.15559,15.0302828125,3.28892,16.1330828125,3.99961C16.9087828125,4.51273,17.8189828125,4.78633,18.7502828125,4.78633L18.7502828125,8.19961Z" fill="#FFFFFF" fill-opacity="1"/></g></g></svg>