<svg xmlns="http://www.w3.org/2000/svg" xmlns:xlink="http://www.w3.org/1999/xlink" fill="none" version="1.1" width="20" height="20" viewBox="0 0 20 20"><defs><clipPath id="master_svg0_211_45224"><rect x="0" y="0" width="20" height="20" rx="0"/></clipPath></defs><g clip-path="url(#master_svg0_211_45224)"><g><path d="M19.7998296875,6.000087890625Q19.6041296875,4.621337890625,19.0029296875,4.015717890625C18.2410296875,3.218837890625,17.3898296875,3.215087890625,16.9992296875,3.168212890625Q14.2023296875,2.965087890625,10.0029296875,2.965087890625L9.9954296875,2.965087890625Q5.7960596875,2.965087890625,2.9991796875,3.168212890625C2.6085496875,3.215087890625,1.7573096875,3.218837890625,0.9954296875,4.015707890625Q0.3935546875,4.621337890625,0.2023046875,6.000087890625Q0.0029296875,7.617587890625,0.0029296875,9.238217890625L0.0029296875,10.753837890625Q0.0029296875,12.370707890625,0.2023046875,13.991987890625Q0.3979296875,15.370687890625,0.9954296875,15.976287890625C1.7573096875,16.773187890625,2.7572996875,16.745687890625,3.2022996875,16.831987890625Q4.8041796875,16.984487890624997,10.0029296875,17.031287890625002Q14.2060296875,17.023787890625,17.0029296875,16.824487890625C17.3935296875,16.777587890625,18.2454296875,16.773787890625,19.0066296875,15.976987890625Q19.6079296875,15.371287890625,19.8035296875,13.992587890625Q20.0029296875,12.375717890625,20.0029296875,10.754467890625001L20.0029296875,9.238837890625Q19.9991296875,7.621337890625,19.7998296875,6.000707890625L19.7998296875,6.000087890625ZM7.9329296875,12.593837890625L7.9329296875,6.972587890625L13.3354296875,9.793207890625L7.9329296875,12.593837890625Z" fill="#FFFFFF" fill-opacity="1"/></g></g></svg>