<svg xmlns="http://www.w3.org/2000/svg" xmlns:xlink="http://www.w3.org/1999/xlink" fill="none" version="1.1" width="24" height="24" viewBox="0 0 24 24"><defs><clipPath id="master_svg0_64_7464/64_7490"><rect x="0" y="0" width="24" height="24" rx="0"/></clipPath></defs><g clip-path="url(#master_svg0_64_7464/64_7490)"><g><ellipse cx="12" cy="12" rx="9" ry="9" fill-opacity="0" stroke-opacity="1" stroke="#FFFFFF" fill="none" stroke-width="1.5"/></g><g><path d="M18.91155,17.099Q19.14025,17.1695,19.25655,17.209400000000002L19.74346,15.7906Q19.6047,15.743,19.35322,15.6655Q18.76523,15.4843,18.44769,15.2961Q17.88896,14.9649,17.12418,14.1775Q16.94315,13.9911,16.96485,13.5896Q16.98415,13.2323,17.23321,12.33917Q17.6545,10.82835,17.5443,10.06733Q17.33407,8.61551,15.68369,7.99761Q14.04875,7.38549,13.54418,6.04474Q13.232679,5.21702,13.253548,3.42614Q13.256896,3.1388030000000002,13.256896,3L11.756896,3Q11.756896,3.130062,11.75365,3.408661Q11.729495,5.48147,12.140301000000001,6.57306Q12.884817,8.551400000000001,15.15775,9.40238Q15.97677,9.70903,16.05978,10.2823Q16.12464,10.7302,15.78833,11.93627Q15.495190000000001,12.98749,15.46704,13.5086Q15.40993,14.5654,16.04818,15.2225Q16.95215,16.1533,17.68275,16.586399999999998Q18.15343,16.8654,18.91155,17.099Z" fill-rule="evenodd" fill="#FFFFFF" fill-opacity="1"/></g><g><path d="M13.99383,20.1766Q14.5841,20.3587,14.833,20.8429L16.167,20.1571Q15.6296,19.1115,14.4361,18.7432Q13.80587,18.5488,12.42454,18.478Q11.02904,18.406399999999998,10.42078,18.2083Q9.49848,17.9078,8.98968,17.083Q8.54296,16.35879,8.79514,15.70868Q8.97866,15.23557,9.820879999999999,14.2756Q10.75747,13.20807,11.029779999999999,12.57067Q11.55026,11.35238,10.86823,10.15261Q10.2248,9.02075,9.04922,8.63105Q8.405560000000001,8.417674,7.11681,8.378414Q6.0108999999999995,8.344724,5.59176,8.182757Q4.997233,7.953019,4.69364,7.214757L3.3063599999999997,7.785243Q3.855163,9.11979,5.05108,9.58193Q5.70918,9.83623,7.07114,9.87772Q8.14122,9.91032,8.57723,10.05485Q9.20565,10.26318,9.5642,10.89391Q9.87865,11.44706,9.65039,11.98137Q9.47209,12.3987,8.69332,13.286349999999999Q7.67614,14.44575,7.39667,15.16621Q6.87479,16.511589999999998,7.71302,17.8705Q8.51069,19.163600000000002,9.95618,19.6345Q10.75358,19.8943,12.34776,19.976Q13.5423,20.0372,13.99383,20.1766Z" fill-rule="evenodd" fill="#FFFFFF" fill-opacity="1"/></g></g></svg>