<?xml version="1.0" encoding="UTF-8"?>
<svg id="_图层_2" data-name="图层 2" xmlns="http://www.w3.org/2000/svg" viewBox="0 0 1097.81 135.7">
  <defs>
    <style>
      .cls-1 {
        fill: #ffffff;
      }
    </style>
  </defs>
  <g id="_图层_1-2" data-name="图层 1">
    <g id="_图层_2-2" data-name="图层 2">
      <g id="_图层_1-2" data-name="图层 1-2">
        <polygon class="cls-1" points="394.64 0 329.25 50.65 263.85 0 219.5 0 307.07 67.83 219.5 135.66 263.85 135.66 329.25 85.01 394.64 135.66 438.99 135.66 351.42 67.83 438.99 0 394.64 0"/>
        <path class="cls-1" d="m0,29v77.7c0,16.02,12.98,29,29,29h170.71v-24.7H47.71c-8,.02-14.5-6.44-14.52-14.44,0-.02,0-.03,0-.05v-17.38h154.29v-24.68H33.19v-15.3c0-8,6.48-14.48,14.48-14.48h152V0H29C12.98,0,0,12.98,0,29Z"/>
        <path class="cls-1" d="m458.79,29v77.7c0,16.02,12.98,29,29,29h170.71v-24.7h-152c-8,.01-14.49-6.46-14.5-14.46v-17.41h154.26v-24.68h-154.26v-15.3c0-8,6.48-14.48,14.48-14.48h152V0h-170.73c-16,.02-28.96,13-28.96,29Z"/>
        <path class="cls-1" d="m1068.81,0h-170.75v135.66h170.75c16.02,0,29-12.98,29-29V29c0-16.02-12.98-29-29-29Zm-4.23,96.51c0,8-6.47,14.48-14.47,14.49h-118.86V24.67h118.85c8,0,14.48,6.48,14.48,14.48h0s0,57.36,0,57.36Z"/>
        <path class="cls-1" d="m678.56,29v77.7c0,16.02,12.98,29,29,29h170.71v-24.7h-152c-7.99,0-14.47-6.49-14.48-14.48v-17.39h154.21v-24.68h-154.25v-15.3c0-8,6.48-14.48,14.48-14.48h152V0h-170.71c-16,.02-28.96,13-28.96,29Z"/>
      </g>
    </g>
  </g>
</svg>