<svg xmlns="http://www.w3.org/2000/svg" xmlns:xlink="http://www.w3.org/1999/xlink" fill="none" version="1.1" width="20" height="20" viewBox="0 0 20 20"><g><g><path d="M16.801052596664427,15.3729814453125Q16.66145259666443,15.7028814453125,16.490252596664426,16.0180814453125L16.908652596664428,16.2453814453125Q17.09095259666443,15.9097814453125,17.239552596664428,15.5584814453125Q17.857152596664427,14.0984014453125,17.857152596664427,12.5000314453125Q17.857152596664427,9.2454914453125,15.555852596664428,6.9441914453125Q13.254552596664428,4.6428834453125,10.000002596664428,4.6428854453125Q6.745472596664428,4.6428864453125,4.4441625966644285,6.9441914453125Q2.142854596664429,9.2454914453125,2.1428565966644286,12.5000314453125Q2.1428575966644288,14.0984014453125,2.760408596664429,15.5584814453125Q2.9089995966644286,15.9097814453125,3.091312596664429,16.2453814453125L3.5097525966644287,16.0180814453125Q3.3385215966644286,15.7028814453125,3.198981596664429,15.3729814453125Q2.6190475966644287,14.0018414453125,2.6190475966644287,12.5000314453125Q2.6190475966644287,9.4427414453125,4.780882596664428,7.2809114453124995Q6.942712596664428,5.1190764453125,10.000002596664428,5.1190764453125Q13.057252596664428,5.1190764453125,15.21915259666443,7.2809114453124995Q17.38095259666443,9.4427414453125,17.38095259666443,12.5000314453125Q17.38095259666443,14.0018414453125,16.801052596664427,15.3729814453125Z" fill-rule="evenodd" fill="#FFFFFF" fill-opacity="1"/></g><g><ellipse cx="10.000000834465027" cy="12.738089442253113" rx="0.7142857313156128" ry="0.7142857313156128" fill="#FFFFFF" fill-opacity="1"/></g><g><rect x="9.52392578125" y="4.8809814453125" width="0.4761905074119568" height="2.3809525966644287" rx="0" fill="#FFFFFF" fill-opacity="1"/></g><g transform="matrix(0.8518796563148499,-0.5237377285957336,0.5237377285957336,0.8518796563148499,-2.3393080422378603,3.8937460606359195)"><rect x="5.714278221130371" y="6.0826416015625" width="0.4763004779815674" height="2.3895556926727295" rx="0" fill="#FFFFFF" fill-opacity="1"/></g><g transform="matrix(0.8145373463630676,0.5801110863685608,0.5801110863685608,-0.8145373463630676,-2.1441944619000424,6.706855820637429)"><rect x="12.541015625" y="7.70556640625" width="0.4761905074119568" height="2.3809523582458496" rx="0" fill="#FFFFFF" fill-opacity="1"/></g><g transform="matrix(0.3476811349391937,-0.9376128315925598,0.9376128315925598,0.3476811349391937,-7.149675264896359,8.94946305348276)"><rect x="2.85693359375" y="9.613037109375" width="0.4761905074119568" height="2.3922295570373535" rx="0" fill="#FFFFFF" fill-opacity="1"/></g><g transform="matrix(0.45509275794029236,0.8904440402984619,0.8904440402984619,-0.45509275794029236,-1.0835013545001857,1.7705715306437924)"><rect x="14.76171875" y="10.250244140625" width="0.4761905074119568" height="2.3809523582458496" rx="0" fill="#FFFFFF" fill-opacity="1"/></g><g transform="matrix(0,-1,1,0,-10.595243692398071,15.357148885726929)"><rect x="2.3809525966644287" y="12.9761962890625" width="0.4761905074119568" height="2.3809525966644287" rx="0" fill="#FFFFFF" fill-opacity="1"/></g><g transform="matrix(-0.45401155948638916,-0.8909958004951477,0.8909958004951477,-0.45401155948638916,-9.989174937814823,26.497440544801066)"><rect x="3.1240234375" y="16.309326171875" width="0.47670698165893555" height="2.382594108581543" rx="0" fill="#FFFFFF" fill-opacity="1"/></g><g transform="matrix(0.892985463142395,-0.4500855803489685,0.4500855803489685,0.892985463142395,-3.3559912014517295,4.6474646498131165)"><rect x="8.09523868560791" y="9.381103515625" width="0.4761905074119568" height="6.110260009765625" rx="0" fill="#FFFFFF" fill-opacity="1"/></g><g transform="matrix(0,-1,1,0,2.2620849609375,28.2144775390625)"><rect x="15.23828125" y="12.9761962890625" width="0.4761905074119568" height="2.3809525966644287" rx="0" fill="#FFFFFF" fill-opacity="1"/></g><g transform="matrix(0.45399051904678345,-0.8910065293312073,0.8910065293312073,0.45399051904678345,-5.711570032748568,21.469360097085882)"><rect x="14.66162109375" y="15.3948974609375" width="0.47627273201942444" height="2.391223192214966" rx="0" fill="#FFFFFF" fill-opacity="1"/></g></g></svg>