<svg xmlns="http://www.w3.org/2000/svg" xmlns:xlink="http://www.w3.org/1999/xlink" fill="none" version="1.1" width="20" height="20" viewBox="0 0 20 20"><g><g><path d="M3.58202925,3.29150590625L3.95703125,3.29150390625L14.79033125,3.29150390625Q15.49793125,3.29150390625,15.99833125,3.79186290625Q16.49873125,4.29222390625,16.49873125,4.99983390625L16.49873125,16.87480390625L16.49873125,17.24980390625L17.24873125,17.24980390625L17.24873125,16.87480390625L17.24873125,4.99983390625Q17.24873125,3.98156390625,16.52863125,3.26153290625Q15.80863125,2.54150390625,14.79033125,2.54150390625L3.95703125,2.54150390625L3.58202925,2.54150190625L3.58202925,3.29150590625Z" fill-rule="evenodd" fill="#FFFFFF" fill-opacity="1"/></g><g><path d="M3.33203125,5.79150390625L4.43213125,5.79150390625L4.43213125,5.04150390625L3.33203125,5.04150390625L3.33203125,5.79150390625ZM6.63232125,5.79150390625L8.83251125,5.79150390625L8.83251125,5.04150390625L6.63232125,5.04150390625L6.63232125,5.79150390625ZM12.49870125,5.79150390625Q12.80757125,5.79150390625,13.09389125,5.89793790625L13.35523125,5.19493890625Q12.94246125,5.04150390625,12.49870125,5.04150390625L11.032701249999999,5.04150390625L11.032701249999999,5.79150390625L12.49870125,5.79150390625ZM14.20703125,7.49983390625L14.20703125,9.382503906250001L14.95703125,9.382503906250001L14.95703125,7.49983390625Q14.95703125,7.30678390625,14.92743125,7.11731390625L14.18643125,7.23323390625Q14.20703125,7.36508390625,14.20703125,7.49983390625ZM14.20703125,11.58269390625L14.20703125,13.78288390625L14.95703125,13.78288390625L14.95703125,11.58269390625L14.20703125,11.58269390625ZM14.20703125,15.98310390625L14.20703125,17.08320390625L14.95703125,17.08320390625L14.95703125,15.98310390625L14.20703125,15.98310390625Z" fill-rule="evenodd" fill="#FFFFFF" fill-opacity="1"/></g><g><path d="M3.79296675,8.70849809375L4.16796875,8.70849609375L9.59400875,8.70849609375Q10.30004875,8.70849609375,10.796468749999999,9.20802709375Q11.29296875,9.707626093750001,11.29296875,10.41682609375L11.29296875,16.66682609375L11.29296875,17.04182609375L12.04296875,17.04182609375L12.04296875,16.66682609375L12.04296875,10.41682609375Q12.04296875,9.39833609375,11.32844875,8.67935309375Q10.61207875,7.95849609375,9.59400875,7.95849609375L4.16796875,7.95849609375L3.79296675,7.95849409375L3.79296675,8.70849809375Z" fill-rule="evenodd" fill="#FFFFFF" fill-opacity="1"/></g></g></svg>