<svg xmlns="http://www.w3.org/2000/svg" xmlns:xlink="http://www.w3.org/1999/xlink" fill="none" version="1.1" width="24" height="24" viewBox="0 0 24 24"><defs><mask id="master_svg0_105_16260" style="mask-type:alpha" maskUnits="objectBoundingBox"><g><rect x="0" y="0" width="24" height="24" rx="0" fill="#FFFFFF" fill-opacity="1"/></g></mask></defs><g mask="url(#master_svg0_105_16260)"><g><path d="M13.60816125,10.856535392646789L15.43657125,2.0798793926467893Q15.45685125,1.9825133526467895,15.43833125,1.8847966926467896Q15.41981125,1.7870803926467895,15.36531125,1.7038893926467895Q15.31080125,1.6206983926467895,15.22861125,1.5646983926467897Q15.14642125,1.5086983926467896,15.04905125,1.4884143926467894Q14.97962125,1.4739503926467896,14.90891125,1.4793643926467896Q14.83820125,1.4847783926467897,14.77178125,1.5096423926467897Q14.70536125,1.5345073926467896,14.64848125,1.5768613926467896Q14.59159125,1.6192153926467896,14.54873125,1.6757173926467894L5.90243125,13.073405392646789Q5.84232225,13.152705392646789,5.81711225,13.24890539264679Q5.7919012500000004,13.34510539264679,5.80542625,13.44360539264679Q5.81895225,13.54210539264679,5.86915425,13.62800539264679Q5.91935625,13.71380539264679,5.99859325,13.774005392646789Q6.13259025,13.87560539264679,6.30078125,13.87560539264679L10.41784125,13.87560539264679L8.95291125,21.93270539264679Q8.93512125,22.03060539264679,8.95613125,22.12780539264679Q8.977141249999999,22.22500539264679,9.03375125,22.30680539264679Q9.09036125,22.38850539264679,9.17396125,22.44240539264679Q9.25755125,22.49630539264679,9.35541125,22.51410539264679Q9.423931249999999,22.52660539264679,9.49324125,22.519805392646788Q9.56256125,22.51310539264679,9.62740125,22.487705392646788Q9.692231249999999,22.46220539264679,9.74765125,22.42010539264679Q9.80307125,22.377905392646788,9.844861250000001,22.32220539264679L18.09818125,11.31695539264679Q18.127781249999998,11.27755539264679,18.149081250000002,11.23315539264679Q18.170281250000002,11.188745392646789,18.18258125,11.14104539264679Q18.19478125,11.09333539264679,18.19748125,11.04416539264679Q18.20008125,10.99498539264679,18.193181250000002,10.946245392646789Q18.18618125,10.89748539264679,18.16988125,10.85103539264679Q18.15348125,10.80457539264679,18.12838125,10.76220539264679Q18.103281250000002,10.71983539264679,18.07048125,10.68316539264679Q18.037581250000002,10.64650539264679,17.998181250000002,10.616955392646789Q17.92468125,10.56184539264679,17.836381250000002,10.53645539264679Q17.748181250000002,10.51106539264679,17.656581250000002,10.518695392646789L13.60816125,10.856535392646789ZM14.005391249999999,4.046555392646789L12.492531249999999,11.30854539264679Q12.477711249999999,11.37968539264679,12.483751250000001,11.45210539264679Q12.49202125,11.551215392646789,12.53759125,11.639615392646789Q12.58316125,11.728015392646789,12.65909125,11.792255392646789Q12.735021249999999,11.856485392646789,12.829751250000001,11.88677539264679Q12.92448125,11.917065392646789,13.023601249999999,11.90879539264679L16.63008125,11.60783539264679L10.31570125,20.02760539264679L11.50888125,13.46500539264679Q11.51695125,13.42070539264679,11.51695125,13.37560539264679Q11.51695125,13.32640539264679,11.50734125,13.27810539264679Q11.497731250000001,13.229805392646789,11.47889125,13.18430539264679Q11.46004125,13.13880539264679,11.43268125,13.097805392646789Q11.40532125,13.05690539264679,11.37050125,13.02210539264679Q11.33568125,12.98720539264679,11.29473125,12.959905392646789Q11.253791249999999,12.932505392646789,11.20829125,12.91370539264679Q11.16279125,12.89480539264679,11.11449125,12.885205392646789Q11.06619125,12.87560539264679,11.01695125,12.87560539264679L7.30767125,12.87560539264679L14.005391249999999,4.046555392646789Z" fill-rule="evenodd" fill="#FFFFFF" fill-opacity="1"/></g></g></svg>