<svg xmlns="http://www.w3.org/2000/svg" xmlns:xlink="http://www.w3.org/1999/xlink" fill="none" version="1.1" width="20" height="20" viewBox="0 0 20 20"><g><g><g transform="matrix(0,1,-1,0,6.111072778701782,-0.5555942058563232)"><path d="M18.333333492279053,3.3332952864227297L3.3333334922790527,3.3332952864227297L3.3333334922790527,2.2221832864227293L18.333333492279053,2.2221832864227293L18.333333492279053,3.3332952864227297Z" fill-rule="evenodd" fill="#FFFFFF" fill-opacity="1"/></g><g transform="matrix(0,1,-1,0,19.166492700576782,8.611153841018677)"><path d="M9.166559429779053,14.444379270797729L5.277669429779053,14.444379270797729L5.277669429779053,13.33326727079773L9.166559429779053,13.33326727079773L9.166559429779053,14.444379270797729Z" fill-rule="evenodd" fill="#FFFFFF" fill-opacity="1"/></g><g transform="matrix(0,1,-1,0,22.777671575546265,8.333226919174194)"><path d="M9.444442328186035,16.11100524736023L7.222222328186035,16.11100524736023L7.222222328186035,14.99989324736023L9.444442328186035,14.99989324736023L9.444442328186035,16.11100524736023Z" fill-rule="evenodd" fill="#FFFFFF" fill-opacity="1"/></g><g transform="matrix(0,1,-1,0,24.166858911514282,5.833199739456177)"><path d="M11.944609586029053,15.555585325485229L9.166829586029053,15.555585325485229L9.166829586029053,14.44447332548523L11.944609586029053,14.44447332548523L11.944609586029053,15.555585325485229Z" fill-rule="evenodd" fill="#FFFFFF" fill-opacity="1"/></g><g transform="matrix(0,1,-1,0,24.999988794326782,2.7776577472686768)"><path d="M15.000055523529053,14.444379270797729L11.111165523529053,14.444379270797729L11.111165523529053,13.33326727079773L15.000055523529053,13.33326727079773L15.000055523529053,14.444379270797729Z" fill-rule="evenodd" fill="#FFFFFF" fill-opacity="1"/></g><g transform="matrix(0,1,-1,0,28.610950708389282,2.4999477863311768)"><path d="M15.277721461029053,16.11100524736023L13.055501461029053,16.11100524736023L13.055501461029053,14.99989324736023L15.277721461029053,14.99989324736023L15.277721461029053,16.11100524736023Z" fill-rule="evenodd" fill="#FFFFFF" fill-opacity="1"/></g><g transform="matrix(0,1,-1,0,29.999866724014282,0.0001919269561767578)"><path d="M17.777617398529053,15.555585325485229L14.999837398529053,15.555585325485229L14.999837398529053,14.44447332548523L17.777617398529053,14.44447332548523L17.777617398529053,15.555585325485229Z" fill-rule="evenodd" fill="#FFFFFF" fill-opacity="1"/></g><g transform="matrix(0,1,-1,0,19.722184419631958,-14.166705846786499)"><path d="M31.94444513320923,3.3332952864227297L16.94444513320923,3.3332952864227297L16.94444513320923,2.2221832864227293L31.94444513320923,2.2221832864227293L31.94444513320923,3.3332952864227297Z" fill-rule="evenodd" fill="#FFFFFF" fill-opacity="1"/></g></g><g><path d="M7.257256032562256,7.264928413391113L4.444406032562256,8.888928413391113L7.257256032562256,10.512928413391114L7.257256032562256,9.166706413391113L12.742666032562257,9.166706413391113L12.742666032562257,10.512928413391114L15.555506032562256,8.888928413391113L12.742666032562257,7.264928413391113L12.742666032562257,8.611150413391114L7.257256032562256,8.611150413391114L7.257256032562256,7.264928413391113Z" fill-rule="evenodd" fill="#FFFFFF" fill-opacity="1"/></g></g></svg>