<svg xmlns="http://www.w3.org/2000/svg" xmlns:xlink="http://www.w3.org/1999/xlink" fill="none" version="1.1" width="24" height="24" viewBox="0 0 24 24"><defs><mask id="master_svg0_105_16291" style="mask-type:alpha" maskUnits="objectBoundingBox"><g><rect x="0" y="0" width="24" height="24" rx="0" fill="#FFFFFF" fill-opacity="1"/></g></mask><mask id="master_svg1_105_16293" style="mask-type:alpha" maskUnits="objectBoundingBox"><g><rect x="0" y="0" width="24" height="24" rx="0" fill="#FFFFFF" fill-opacity="1"/></g></mask></defs><g mask="url(#master_svg0_105_16291)"><g mask="url(#master_svg1_105_16293)"><g><path d="M16.487727436828614,17.01364404602051Q16.903717436828614,18.90064404602051,16.979677436828613,20.092944046020506L17.977657436828615,20.02934404602051Q17.896807436828613,18.760344046020506,17.464277436828613,16.798444046020506Q17.24942743682861,15.823744046020508,17.049617436828612,15.095444046020507L16.997917436828615,14.906944046020508L13.269177436828613,12.580524046020507L13.269177436828613,11.742364046020509Q14.271837436828614,11.482254046020508,15.542517436828614,10.815174046020509Q16.300717436828613,10.417144046020507,16.844247436828613,10.055804046020508L16.844277436828612,10.055774046020508L17.018887436828614,9.939674046020507L17.969687436828615,4.991290146020508L16.987647436828613,4.802597946020508L16.116597436828613,9.335914046020509Q15.670527436828614,9.618544046020506,15.077707436828614,9.929764046020509Q13.674437436828613,10.666444046020509,12.678426836828613,10.850274046020509L12.269177436828613,10.925804046020508L12.269177436828613,13.135284046020509L16.135897436828614,15.547744046020508Q16.305647436828615,16.18774404602051,16.487727436828614,17.01364404602051Z" fill-rule="evenodd" fill="#FFFFFF" fill-opacity="1"/></g><g><path d="M6.963979581048584,16.801444046020507Q6.532056481048584,18.761444046020507,6.451295481048584,20.02934404602051L7.449273481048584,20.092944046020506Q7.525152481048584,18.901644046020508,7.940547481048584,17.01664404602051Q8.122624481048584,16.19044404602051,8.293074481048585,15.547744046020508L12.159814481048585,13.135284046020509L12.159814481048585,10.925804046020508L11.750554481048585,10.850274046020509Q10.754254481048584,10.666394046020507,9.350574481048584,9.929414046020508Q8.757824481048583,9.618204046020509,8.312354481048583,9.335934046020508L7.441302481048584,4.802598046020508L6.459266481048584,4.991290046020508L7.410067481048584,9.939674046020507L7.584670481048584,10.055774046020508Q8.127424481048584,10.416674046020507,8.885714481048584,10.814804046020509Q10.156834481048584,11.482184046020507,11.159814481048585,11.742374046020508L11.159814481048585,12.580524046020507L7.431041481048584,14.906944046020508L7.379336481048584,15.095444046020507L7.379316481048584,15.095444046020507Q7.178700481048584,15.827144046020507,6.963979581048584,16.801444046020507Z" fill-rule="evenodd" fill="#FFFFFF" fill-opacity="1"/></g><g><rect x="6" y="3" width="12" height="1.1176470518112183" rx="0" fill-opacity="0" stroke-opacity="1" stroke="#FFFFFF" fill="none" stroke-width="1"/></g><g><rect x="6" y="20.882352828979492" width="12" height="1.1176470518112183" rx="0" fill-opacity="0" stroke-opacity="1" stroke="#FFFFFF" fill="none" stroke-width="1"/></g></g></g></svg>