<svg xmlns="http://www.w3.org/2000/svg" xmlns:xlink="http://www.w3.org/1999/xlink" fill="none" version="1.1" width="16" height="16" viewBox="0 0 16 16"><defs><clipPath id="master_svg0_1_01234/1_559"><rect x="16" y="0" width="16" height="16" rx="0"/></clipPath></defs><g transform="matrix(-1,0,0,1,32,0)" clip-path="url(#master_svg0_1_01234/1_559)"><g><path d="M27.200428553390502,1.6657244760986327L19.371469953390502,7.833304876098633C19.321090653390502,7.8729848760986325,19.3205673533905,7.949174876098633,19.3703964533905,7.989544876098633L27.199348553390504,14.333344876098632C27.264728553390505,14.386344876098633,27.362308553390505,14.339744876098633,27.362308553390505,14.255644876098632L27.362308553390505,13.011444876098633C27.362308553390505,12.981344876098634,27.348698553390502,12.952744876098633,27.3252685533905,12.933744876098633L21.2393785533905,8.002384876098633C21.1895485533905,7.962004876098633,21.190078553390503,7.885824876098633,21.240458553390503,7.846134876098633L27.324188553390503,3.053424876098633C27.3482585533905,3.0344648760986326,27.362308553390505,3.0055148760986325,27.362308553390505,2.9748748760986325L27.362308553390505,1.744276876098633C27.362308553390505,1.6607743760986329,27.266018553390502,1.6140505760986328,27.200428553390502,1.6657244760986327" fill-rule="evenodd" fill="#000000" fill-opacity="1"/></g></g></svg>