<svg xmlns="http://www.w3.org/2000/svg" xmlns:xlink="http://www.w3.org/1999/xlink" fill="none" version="1.1" width="20" height="20" viewBox="0 0 20 20"><defs><clipPath id="master_svg0_105_14569/64_4189"><rect x="0" y="0" width="20" height="20" rx="0"/></clipPath></defs><g transform="matrix(0,1,1,0,0,0)" clip-path="url(#master_svg0_105_14569/64_4189)"><g><path d="M14.000758510131837,2.0817256440643312L4.214535510131836,9.79121524406433C4.151561610131836,9.84082524406433,4.150907510131836,9.936055244064331,4.213193910131836,9.986525244064332L13.999418510131836,17.91625524406433C14.081138510131836,17.98255524406433,14.203138510131836,17.92435524406433,14.203138510131836,17.819155244064333L14.203138510131836,16.26395524406433C14.203138510131836,16.226255244064333,14.186138510131835,16.19055524406433,14.156808510131835,16.16685524406433L6.549428510131836,10.002575244064332C6.487138510131835,9.952105244064331,6.4877885101318356,9.85687524406433,6.550768510131836,9.80726524406433L14.155468510131836,3.816355244064331C14.185538510131837,3.7926552440643313,14.203138510131836,3.756465244064331,14.203138510131836,3.7181652440643314L14.203138510131836,2.179916244064331C14.203138510131836,2.075538044064331,14.082758510131836,2.0171332440643313,14.000758510131837,2.0817256440643312" fill-rule="evenodd" fill="#808080" fill-opacity="1"/></g></g></svg>